<svg width="24" height="24" viewBox="0 0 24 24" fill="none" xmlns="http://www.w3.org/2000/svg">
<g clip-path="url(#clip0_10_14)">
<path d="M12 0C9.62663 0 7.30655 0.703788 5.33316 2.02236C3.35977 3.34094 1.8217 5.21509 0.913451 7.4078C0.00519943 9.60051 -0.232441 12.0133 0.230582 14.3411C0.693605 16.6689 1.83649 18.8071 3.51472 20.4853C5.19295 22.1635 7.33115 23.3064 9.65892 23.7694C11.9867 24.2324 14.3995 23.9948 16.5922 23.0866C18.7849 22.1783 20.6591 20.6402 21.9776 18.6668C23.2962 16.6935 24 14.3734 24 12C24 8.8174 22.7357 5.76516 20.4853 3.51472C18.2349 1.26428 15.1826 0 12 0V0ZM12 22C10.0222 22 8.08879 21.4135 6.4443 20.3147C4.79981 19.2159 3.51809 17.6541 2.76121 15.8268C2.00433 13.9996 1.8063 11.9889 2.19215 10.0491C2.578 8.10929 3.53041 6.32746 4.92894 4.92893C6.32746 3.53041 8.10929 2.578 10.0491 2.19215C11.9889 1.8063 13.9996 2.00433 15.8268 2.7612C17.6541 3.51808 19.2159 4.79981 20.3147 6.4443C21.4135 8.08879 22 10.0222 22 12C22 14.6522 20.9464 17.1957 19.0711 19.0711C17.1957 20.9464 14.6522 22 12 22V22Z" fill="#06D6A0"/>
<path d="M9.08002 9.90001C9.15809 10.0789 9.2868 10.231 9.45027 10.3376C9.61375 10.4442 9.80485 10.5007 10 10.5C10.1371 10.4976 10.2726 10.4705 10.4 10.42C10.5211 10.3678 10.6307 10.2922 10.7224 10.1975C10.8142 10.1028 10.8863 9.99088 10.9346 9.86819C10.983 9.74551 11.0066 9.61448 11.0041 9.48264C11.0015 9.3508 10.973 9.22077 10.92 9.10001C10.6482 8.47456 10.1996 7.94213 9.62935 7.56816C9.05908 7.19419 8.39198 6.99496 7.71002 6.99496C7.02807 6.99496 6.36097 7.19419 5.79069 7.56816C5.22042 7.94213 4.77182 8.47456 4.50002 9.10001C4.39181 9.34142 4.38366 9.61588 4.47738 9.86329C4.57109 10.1107 4.75902 10.3109 5.00002 10.42C5.12131 10.4745 5.25224 10.5043 5.38518 10.5076C5.51811 10.511 5.65037 10.4877 5.77422 10.4393C5.89807 10.3909 6.01101 10.3182 6.10645 10.2256C6.20188 10.133 6.27789 10.0223 6.33002 9.90001C6.44671 9.63238 6.63896 9.40461 6.8832 9.24465C7.12745 9.08469 7.41306 8.99949 7.70502 8.99949C7.99699 8.99949 8.2826 9.08469 8.52685 9.24465C8.77109 9.40461 8.96334 9.63238 9.08002 9.90001V9.90001Z" fill="#06D6A0"/>
<path d="M19.5 9.10001C19.2282 8.47456 18.7796 7.94213 18.2094 7.56816C17.6391 7.19419 16.972 6.99496 16.29 6.99496C15.6081 6.99496 14.941 7.19419 14.3707 7.56816C13.8004 7.94213 13.3518 8.47456 13.08 9.10001C12.9739 9.34401 12.9691 9.62016 13.0666 9.86771C13.1642 10.1153 13.356 10.3139 13.6 10.42C13.844 10.5261 14.1202 10.5309 14.3677 10.4334C14.6153 10.3359 14.8139 10.144 14.92 9.90001C15.0367 9.63238 15.229 9.40461 15.4732 9.24465C15.7174 9.08469 16.0031 8.99949 16.295 8.99949C16.587 8.99949 16.8726 9.08469 17.1168 9.24465C17.3611 9.40461 17.5533 9.63238 17.67 9.90001C17.7474 10.0773 17.8746 10.2284 18.0361 10.3349C18.1976 10.4414 18.3866 10.4987 18.58 10.5C18.7172 10.4985 18.8528 10.4714 18.98 10.42C19.1011 10.3678 19.2107 10.2922 19.3024 10.1975C19.3942 10.1028 19.4663 9.99088 19.5146 9.86819C19.563 9.74551 19.5866 9.61448 19.5841 9.48264C19.5815 9.3508 19.553 9.22077 19.5 9.10001Z" fill="#06D6A0"/>
<path d="M16.49 14.13C16.2592 14.0005 15.9864 13.9677 15.7315 14.0389C15.4766 14.1102 15.2603 14.2796 15.13 14.51C14.8326 15.091 14.3859 15.5824 13.8359 15.9339C13.2859 16.2853 12.6522 16.4842 12 16.51C11.3478 16.4842 10.7142 16.2853 10.1642 15.9339C9.61415 15.5824 9.1675 15.091 8.87003 14.51C8.73742 14.2793 8.51858 14.1107 8.26166 14.0413C8.00473 13.9719 7.73077 14.0074 7.50003 14.14C7.26929 14.2726 7.10068 14.4914 7.03129 14.7484C6.9619 15.0053 6.99742 15.2793 7.13003 15.51C7.59891 16.4002 8.29818 17.1482 9.15482 17.6759C10.0115 18.2036 10.9941 18.4917 12 18.51C13.006 18.4917 13.9886 18.2036 14.8452 17.6759C15.7019 17.1482 16.4011 16.4002 16.87 15.51C16.9373 15.3949 16.9809 15.2674 16.9982 15.1352C17.0155 15.0029 17.0062 14.8685 16.9708 14.7399C16.9354 14.6114 16.8746 14.4911 16.792 14.3864C16.7095 14.2816 16.6068 14.1945 16.49 14.13V14.13Z" fill="#06D6A0"/>
</g>
<defs>
<clipPath id="clip0_10_14">
<rect width="24" height="24" fill="white"/>
</clipPath>
</defs>
</svg>
