<svg width="24" height="24" viewBox="0 0 24 24" fill="none" xmlns="http://www.w3.org/2000/svg">
<g clip-path="url(#clip0_11_73)">
<path d="M12 0C9.62663 0 7.30655 0.703788 5.33316 2.02236C3.35977 3.34094 1.8217 5.21509 0.913451 7.4078C0.00519943 9.60051 -0.232441 12.0133 0.230582 14.3411C0.693605 16.6689 1.83649 18.8071 3.51472 20.4853C5.19295 22.1635 7.33115 23.3064 9.65892 23.7694C11.9867 24.2324 14.3995 23.9948 16.5922 23.0866C18.7849 22.1783 20.6591 20.6402 21.9776 18.6668C23.2962 16.6935 24 14.3734 24 12C24 8.8174 22.7357 5.76516 20.4853 3.51472C18.2349 1.26428 15.1826 0 12 0V0ZM12 22C10.0222 22 8.08879 21.4135 6.4443 20.3147C4.79981 19.2159 3.51809 17.6541 2.76121 15.8268C2.00433 13.9996 1.8063 11.9889 2.19215 10.0491C2.578 8.10929 3.53041 6.32746 4.92894 4.92893C6.32746 3.53041 8.10929 2.578 10.0491 2.19215C11.9889 1.8063 13.9996 2.00433 15.8268 2.7612C17.6541 3.51808 19.2159 4.79981 20.3147 6.4443C21.4135 8.08879 22 10.0222 22 12C22 14.6522 20.9464 17.1957 19.0711 19.0711C17.1957 20.9464 14.6522 22 12 22V22Z" fill="#EF476F"/>
<path d="M12.0001 14.75C10.9987 14.7483 10.0146 15.011 9.1472 15.5114C8.27982 16.0118 7.55986 16.7323 7.06005 17.6C7.02043 17.6666 6.99951 17.7426 6.99951 17.82C6.99951 17.8975 7.02043 17.9735 7.06005 18.04C7.09983 18.1049 7.15574 18.1583 7.22235 18.1951C7.28895 18.2319 7.36396 18.2509 7.44005 18.25H16.5601C16.6361 18.2509 16.7112 18.2319 16.7778 18.1951C16.8444 18.1583 16.9003 18.1049 16.9401 18.04C16.9797 17.9735 17.0006 17.8975 17.0006 17.82C17.0006 17.7426 16.9797 17.6666 16.9401 17.6C16.4402 16.7323 15.7203 16.0118 14.8529 15.5114C13.9855 15.011 13.0014 14.7483 12.0001 14.75Z" fill="#EF476F"/>
<path d="M10.16 11.49C10.3517 11.4682 10.5329 11.3915 10.682 11.2691C10.831 11.1467 10.9415 10.9838 11 10.8C11.0543 10.6272 11.0607 10.4429 11.0184 10.2668C10.9761 10.0907 10.8868 9.92932 10.76 9.8L7.76002 6.8C7.66744 6.70347 7.55675 6.62613 7.43428 6.57239C7.3118 6.51864 7.17995 6.48955 7.04623 6.48676C6.91251 6.48398 6.77956 6.50756 6.65495 6.55615C6.53035 6.60475 6.41654 6.67741 6.32002 6.77C6.2235 6.86258 6.14615 6.97326 6.09241 7.09574C6.03866 7.21821 6.00957 7.35007 6.00678 7.48378C6.004 7.6175 6.02758 7.75046 6.07617 7.87506C6.12477 7.99966 6.19744 8.11347 6.29002 8.21L7.58002 9.49C7.61083 9.52289 7.63256 9.56323 7.64308 9.60706C7.6536 9.65089 7.65254 9.6967 7.64002 9.74C7.62572 9.78409 7.59944 9.82334 7.56412 9.85336C7.52881 9.88338 7.48584 9.90299 7.44002 9.91L6.84002 10.01C6.58765 10.0456 6.35838 10.1762 6.19907 10.3751C6.03975 10.574 5.96241 10.8263 5.98283 11.0803C6.00326 11.3344 6.11991 11.5711 6.30897 11.742C6.49802 11.9129 6.7452 12.0052 7.00002 12H7.16002L10.16 11.49Z" fill="#EF476F"/>
<path d="M17.6401 9.99999L16.6401 9.84999C16.5932 9.84677 16.5484 9.8299 16.5111 9.80146C16.4738 9.77303 16.4456 9.73427 16.4301 9.68999C16.4167 9.64517 16.4152 9.59764 16.4257 9.55206C16.4362 9.50648 16.4584 9.46442 16.4901 9.42999L17.7301 8.19999C17.9184 8.01169 18.0242 7.75629 18.0242 7.48999C18.0242 7.22369 17.9184 6.9683 17.7301 6.77999C17.5418 6.59169 17.2864 6.4859 17.0201 6.4859C16.7538 6.4859 16.4984 6.59169 16.3101 6.77999L13.3101 9.77999C13.1832 9.90931 13.0939 10.0707 13.0517 10.2468C13.0094 10.4229 13.0157 10.6072 13.0701 10.78C13.1296 10.9559 13.2369 11.1117 13.3799 11.23C13.523 11.3483 13.6962 11.4245 13.8801 11.45L17.3801 11.95H17.5201C17.7853 11.9686 18.047 11.881 18.2477 11.7066C18.4483 11.5322 18.5715 11.2852 18.5901 11.02C18.6086 10.7548 18.5211 10.493 18.3467 10.2924C18.1723 10.0917 17.9253 9.96856 17.6601 9.94999L17.6401 9.99999Z" fill="#EF476F"/>
</g>
<defs>
<clipPath id="clip0_11_73">
<rect width="24" height="24" fill="white"/>
</clipPath>
</defs>
</svg>
