<svg width="24" height="24" viewBox="0 0 24 24" fill="none" xmlns="http://www.w3.org/2000/svg">
<g clip-path="url(#clip0_11_80)">
<path d="M18.05 5.17C17.8308 5.0243 17.5629 4.97093 17.3045 5.02148C17.0462 5.07203 16.8182 5.22241 16.67 5.44C16.3006 5.95528 15.7774 6.34027 15.1755 6.53969C14.5736 6.73912 13.924 6.74272 13.32 6.55C13.0681 6.46513 12.7927 6.48382 12.5545 6.60197C12.3164 6.72012 12.1349 6.92804 12.05 7.18C11.9651 7.43195 11.9838 7.7073 12.102 7.94547C12.2201 8.18364 12.4281 8.36513 12.68 8.45C13.1676 8.609 13.6772 8.69 14.19 8.69C15.0011 8.69739 15.8018 8.50735 16.5231 8.13627C17.2443 7.76519 17.8645 7.22421 18.33 6.56C18.4032 6.45045 18.4541 6.32752 18.4796 6.19826C18.5052 6.069 18.505 5.93596 18.479 5.80679C18.4529 5.67762 18.4016 5.55487 18.328 5.44559C18.2544 5.3363 18.1599 5.24265 18.05 5.17V5.17Z" fill="#FFD166"/>
<path d="M6.8 8.1C6.94538 7.92219 7.12845 7.7789 7.33599 7.68051C7.54352 7.58211 7.77033 7.53107 8 7.53107C8.22968 7.53107 8.45649 7.58211 8.66402 7.68051C8.87156 7.7789 9.05463 7.92219 9.2 8.1C9.29315 8.2242 9.41394 8.325 9.55279 8.39443C9.69165 8.46386 9.84476 8.5 10 8.5C10.2164 8.5 10.4269 8.42982 10.6 8.3C10.7051 8.22121 10.7936 8.12249 10.8605 8.00949C10.9274 7.89649 10.9714 7.77142 10.99 7.64142C11.0085 7.51142 11.0013 7.37903 10.9687 7.25182C10.9361 7.12461 10.8788 7.00506 10.8 6.9C10.474 6.46531 10.0512 6.1125 9.56525 5.8695C9.07926 5.62651 8.54336 5.5 8 5.5C7.45665 5.5 6.92075 5.62651 6.43476 5.8695C5.94876 6.1125 5.52602 6.46531 5.2 6.9C5.04087 7.11217 4.97255 7.37887 5.01005 7.64142C5.04756 7.90397 5.18783 8.14087 5.4 8.3C5.61218 8.45913 5.87887 8.52746 6.14143 8.48995C6.40398 8.45244 6.64087 8.31217 6.8 8.1Z" fill="#FFD166"/>
<path d="M17.72 14.63C16.1839 14.3262 14.5918 14.4929 13.152 15.1084C11.7122 15.724 10.4917 16.7596 9.64996 18.08C9.58143 18.1933 9.53611 18.3192 9.51662 18.4502C9.49713 18.5812 9.50386 18.7148 9.53643 18.8432C9.56899 18.9716 9.62673 19.0922 9.70631 19.1981C9.78588 19.304 9.88569 19.393 9.99996 19.46C10.1115 19.5298 10.2358 19.5769 10.3656 19.5986C10.4954 19.6203 10.6282 19.6162 10.7564 19.5865C10.8846 19.5568 11.0057 19.502 11.1127 19.4254C11.2197 19.3488 11.3105 19.2518 11.38 19.14C11.9997 18.1703 12.8962 17.409 13.9534 16.9544C15.0106 16.4998 16.1798 16.3728 17.31 16.59C17.5752 16.6483 17.8527 16.5989 18.0815 16.4527C18.3103 16.3064 18.4716 16.0752 18.53 15.81C18.5883 15.5448 18.5389 15.2672 18.3926 15.0385C18.2463 14.8097 18.0152 14.6483 17.75 14.59L17.72 14.63Z" fill="#FFD166"/>
<path d="M12 0C9.62663 0 7.30655 0.703788 5.33316 2.02236C3.35977 3.34094 1.8217 5.21509 0.913451 7.4078C0.00519943 9.60051 -0.232441 12.0133 0.230582 14.3411C0.693605 16.6689 1.83649 18.8071 3.51472 20.4853C5.19295 22.1635 7.33115 23.3064 9.65892 23.7694C11.9867 24.2324 14.3995 23.9948 16.5922 23.0866C18.7849 22.1783 20.6591 20.6402 21.9776 18.6668C23.2962 16.6935 24 14.3734 24 12C24 8.8174 22.7357 5.76516 20.4853 3.51472C18.2349 1.26428 15.1826 0 12 0V0ZM12 22C10.0222 22 8.08879 21.4135 6.4443 20.3147C4.79981 19.2159 3.51809 17.6541 2.76121 15.8268C2.00433 13.9996 1.8063 11.9889 2.19215 10.0491C2.578 8.10929 3.53041 6.32746 4.92894 4.92893C6.32746 3.53041 8.10929 2.578 10.0491 2.19215C11.9889 1.8063 13.9996 2.00433 15.8268 2.7612C17.6541 3.51808 19.2159 4.79981 20.3147 6.4443C21.4135 8.08879 22 10.0222 22 12C22 14.6522 20.9464 17.1957 19.0711 19.0711C17.1957 20.9464 14.6522 22 12 22V22Z" fill="#FFD166"/>
<path d="M8 12.5C8.82843 12.5 9.5 11.8284 9.5 11C9.5 10.1716 8.82843 9.5 8 9.5C7.17157 9.5 6.5 10.1716 6.5 11C6.5 11.8284 7.17157 12.5 8 12.5Z" fill="#FFD166"/>
<path d="M15.5 12.5C16.3284 12.5 17 11.8284 17 11C17 10.1716 16.3284 9.5 15.5 9.5C14.6716 9.5 14 10.1716 14 11C14 11.8284 14.6716 12.5 15.5 12.5Z" fill="#FFD166"/>
</g>
<defs>
<clipPath id="clip0_11_80">
<rect width="24" height="24" fill="white"/>
</clipPath>
</defs>
</svg>
